<?xml version="1.0" encoding="utf-8"?>
<!-- Generator: Adobe Illustrator 25.2.3, SVG Export Plug-In . SVG Version: 6.00 Build 0)  -->
<svg version="1.1" id="Layer_1" xmlns="http://www.w3.org/2000/svg" xmlns:xlink="http://www.w3.org/1999/xlink" x="0px" y="0px"
	 viewBox="0 0 1000 750" style="enable-background:new 0 0 1000 1000;" xml:space="preserve">
<path  transform="translate(0.000000,794.000000) scale(0.100000,-0.100000)" d="M7965.4,5402v-321h-60h-60v-50v-49l-92-3l-93-3
	l-3-42l-3-43h-85c-49,0-84-4-84-10c0-5,7-10,15-10c24,0,22-158-2-176c-16-12-13-13,25-14h42v-40v-40h-50h-50l-2-981l-3-981l-130,122
	c-100,94-131,129-133,151l-3,29h-100c-98,0-99,0-99-24c0-18-96-114-420-420l-421-396h-199h-200v-59v-60l-37-3l-38-3l-3-93l-3-92h-34
	h-35v814v815l-47,3l-48,3l-3,100c-3,97-3,100-30,116c-15,9-89,53-166,98c-76,45-144,81-150,79c-7-2-85-46-174-98l-162-95v-102v-103
	h-50h-50v-880v-880h-130h-130v64v65l-32,3l-33,3l-3,92l-3,93h-34h-35v60v60h-140h-140v900v900l-207,2c-115,2-317,2-450,0l-243-3
	v-864v-865h-165h-165v660v660h-95h-95v-50v-50h-300h-300v50v50h-95h-95l-2-577c-1-318-3-559-5-535c-3,25-9,42-17,42
	c-6,0-37,34-67,75c-39,54-60,75-76,75c-21,0-23,5-23,55c0,30-4,55-10,55c-5,0-10,14-10,31c0,22-5,32-20,36c-17,5-20,14-20,65
	c0,37-4,57-10,53c-5-3-10-31-10-61c0-41-4-54-15-54c-10,0-15-11-15-35c0-19-4-35-10-35c-5,0-10-25-10-55c0-51-2-55-24-55
	c-18,0-36-17-75-70c-28-39-58-73-66-76c-10-4-15-20-15-45c0-37-2-39-30-39h-30v-75v-75h-45h-45v-665V861h-110h-110v88v88l47,12
	c101,27,171,148,144,248c-25,92-97,153-193,162c-65,6-145-33-184-89c-23-33-29-55-32-109c-6-108,40-177,140-211l53-18l3-85
	c3-81,2-86-18-86c-12,0-20,7-20,16c0,30-56,74-94,74c-25,0-38,6-46,21c-44,81-194,75-230-10c-10-26-18-31-44-31c-18,0-41-7-52-15
	c-10-8-26-15-35-15s-28-9-42-20c-20-16-40-20-101-20h-76v-27v-28l4710,3l4710,2v25v25h-120h-120v89v88l38,7c89,14,162,105,162,202
	c-1,116-96,214-209,214c-143,0-250-158-195-288c27-65,110-132,164-132c19,0,20-6,20-90v-90h-125h-125v593c0,448,3,596,12,605
	s9,12,0,12c-18,0-17,346,1,353c8,3,7,9-6,19c-11,8-19,29-20,53c-1,22-5,42-8,45s-16,27-28,54c-20,46-20,49-4,62c17,12,16,13-4,14
	h-23v194c0,194,0,195,23,199l22,4l-22,8c-20,6-23,14-23,60c0,48,3,54,23,58l22,4l-22,8c-18,6-23,15-23,41c0,19-4,34-9,34
	s-30,88-56,195c-40,169-49,195-66,195c-16,0-19,7-19,55c0,30-4,55-10,55c-5,0-10-23-10-50c0-43-3-52-23-59c-19-8-28-32-67-192
	c-25-100-51-188-57-195c-7-7-13-26-13-43c0-21-5-31-15-31c-8,0-15-4-15-10c0-5,7-10,15-10c12,0,15-13,15-55s-3-55-15-55
	c-8,0-15-4-15-10c0-5,7-10,15-10c13,0,15-28,15-195s-2-195-15-195c-17,0-20-17-4-22c13-4-17-88-38-105c-8-6-12-17-8-23
	c13-20-4-80-23-80c-16-1-16-2,1-14c15-12,17-33,17-179c0-142-2-167-16-175c-15-8-15-10,0-15c14-6,16-35,16-252c0-135-3-245-7-245
	s-33,26-65,57l-58,57v1463v1463h-50h-50v40v40h43c37,1,40,2,25,14c-25,18-27,176-3,176c8,0,15,5,15,10c0,6-37,10-90,10h-90v45v45
	h-90h-90v50v50h-60h-60v314c0,199-4,317-10,321C7968.4,5720,7965.4,5613,7965.4,5402z M8085.4,5021v-40h-110h-110v40v40h110h110
	V5021z M8265.4,4926v-35h-295h-295v35v35h295h295V4926z M8415.4,4786v-85h-440h-440v85v85h440h440V4786z M8363.4,4639l3-38h-390
	h-391v40v40l388-2l387-3L8363.4,4639z M8465.4,4211v-370h-490h-490v370v370h490h490V4211z M3643.4,3881c8,0,12-21,12-70v-70h-245
	h-245v68c0,38,2,71,4,73s107,3,233,2C3527.4,3882,3636.4,3881,3643.4,3881z M3963.4,2990l-3-884l-117-3l-118-3v890v890l113,3
	c61,2,115,1,120-3C3962.4,3877,3964.4,3477,3963.4,2990z M4023.4,2992c-3-834-4-886-20-889c-17-3-18,45-18,891c0,891,0,895,20,890
	S4025.4,3872,4023.4,2992z M3705.4,2991c0-784-2-890-15-890s-15,106-15,890s2,890,15,890S3705.4,3775,3705.4,2991z M8465.4,3411
	v-410h-490h-490v410v410h490h490V3411z M5155.4,3701v-70h-46c-25,0-44,3-42,8c7,16,81,132,84,132
	C5153.4,3771,5155.4,3740,5155.4,3701z M5224.4,3705c22-36,41-67,41-70c0-2-20-4-45-4h-45v70c0,39,2,70,4,70
	S5201.4,3741,5224.4,3705z M5072.4,3689c-28-45-38-53-68-56l-34-3l60,55c33,30,64,55,68,56C5102.4,3741,5091.4,3717,5072.4,3689z
	 M5300.4,3685l60-55l-34,3c-28,3-39,11-67,56c-19,28-30,52-26,52C5237.4,3740,5267.4,3715,5300.4,3685z M4995.4,3681
	c-39-36-63-50-84-50c-16,0-27,2-25,4c9,8,154,95,159,95C5048.4,3730,5025.4,3708,4995.4,3681z M5398.4,3666c26-15,47-29,47-31
	s-12-4-27-4c-19,1-45,17-83,51C5276.4,3736,5275.4,3736,5398.4,3666z M3653.4,3684l-3-38h-240h-240l-3,23c-8,53-11,52,248,52h241
	L3653.4,3684z M8887.4,3640c4-8,28-99,53-204c25-104,48-198,51-207c5-17-6-18-135-18c-106,0-141,3-141,13c0,15,98,416,104,426
	C8827.4,3662,8879.4,3655,8887.4,3640z M3655.4,3591v-40h-245h-245v40v40h245h245V3591z M5485.4,3516c0-78-3-95-15-95s-15,14-15,64
	c0,36-4,68-10,71c-6,4-10-20-10-64c0-64-2-71-20-71s-20,7-20,70c0,40-4,70-10,70s-10-30-10-70c0-56-3-70-15-70s-15,14-15,64
	c0,88-18,95-22,9c-2-55-6-68-20-71c-16-3-18,5-18,67c0,41-4,71-10,71s-10-30-10-71c0-62-2-70-17-67s-17,12-15,60c2,32,0,63-5,70
	c-5,8-10-15-13-57c-4-56-8-70-22-73c-16-3-18,5-18,67c0,41-4,71-10,71s-10-30-10-71c0-62-2-70-17-67s-18,15-19,66c-2,87-7,89-13,7
	c-5-56-10-70-23-73c-16-3-18,5-18,67c0,41-4,71-10,71s-10-30-10-71c0-62-2-70-17-67s-19,17-23,73l-4,70l-6-70c-4-56-8-70-22-73
	c-16-3-18,5-18,67c0,41-4,71-10,71s-10-30-10-71c0-62-2-70-17-67s-19,17-23,73l-4,70l-6-70c-4-56-8-70-22-73c-16-3-18,6-18,92v96
	h320h320V3516z M3655.4,3501v-40h-245h-245v40v40h245h245V3501z M2005.4,2166c0-1153-2-1305-15-1305s-15,80-15,664v665l-47,3l-48,3
	l-3,73c-2,39-7,72-12,72c-6,0-10,212-10,565v565h75h75V2166z M2795.4,2821v-650h-75h-75v650v650h75h75V2821z M3655.4,3411v-40h-245
	h-245v40v40h245h245V3411z M5485.4,3349v-53l-368,2l-367,2l-3,50l-3,51h370h371V3349z M5585.4,2531v-870h-40h-40v870v870h40h40V2531
	z M2623.4,3249l3-118h-26c-14,0-142,0-285,0s-267,0-275,0c-12,0-15,19-15,113c0,63,3,117,7,120c4,4,137,6,297,5l291-3L2623.4,3249z
	 M3655.4,3321v-40h-245h-245v33c0,19,3,37,7,40c3,4,114,7,245,7h238V3321z M5485.4,3221v-60h-370h-370v60v60h370h370V3221z
	 M3650.4,3226v-40h-240h-240l-3,28c-7,59-14,58,245,55l238-3V3226z M8995.4,3136v-55h-145h-145v55v55h145h145V3136z M3655.4,3131
	v-40h-245h-245v40v40h245h245V3131z M5485.4,3091v-60h-370h-370v60v60h370h370V3091z M2620.4,3051v-55l-297-3l-298-2v53
	c0,30,3,57,7,60c4,4,137,6,297,5l291-3V3051z M3655.4,3041v-40h-245h-245v40v40h245h245V3041z M8995.4,2866v-195h-145h-145v195v195
	h145h145V2866z M5485.4,2961v-60h-370h-370v60v60h370h370V2961z M3655.4,2951v-40h-245h-245v40v40h245h245V2951z M8463.4,2564l2-413
	h-490h-490v415v415l488-2l487-3L8463.4,2564z M2623.4,2939l-3-33l-297-3l-298-2v35v35h301h300L2623.4,2939z M7175.4,1891V861h-80
	h-80v1030v1030h80h80V1891z M3655.4,2861v-40h-245h-245v33c0,19,3,37,7,40c3,4,114,7,245,7h238V2861z M2625.4,2866v-25h-300h-300v25
	v25h300h300V2866z M5485.4,2831v-60h-370h-370v60v60h370h370V2831z M6959.4,2778c-21-23-173-185-337-359l-299-318h-64
	c-35,0-64,3-63,8c0,4,179,175,397,380c318,298,398,368,400,352C6995.4,2828,6982.4,2804,6959.4,2778z M7465.4,2566l-1-40l-134,140
	c-107,111-134,146-135,168c0,26,11,18,135-100C7460.4,2611,7465.4,2605,7465.4,2566z M2623.4,2799l3-28h-300h-301v23c0,13,3,27,7,30
	c4,4,137,6,297,5l291-3L2623.4,2799z M3650.4,2766v-40h-240h-240l-3,28c-7,59-14,58,245,55l238-3V2766z M6995.4,2740
	c0-25-45-82-282-355c-155-178-285-324-289-324s-5,9-2,20c5,17,0,20-27,20c-17,0-30,4-28,10c5,14,612,660,621,660
	C6992.4,2771,6995.4,2757,6995.4,2740z M7465.4,2446c0-59,14-71-154,124c-103,118-116,138-116,170l1,36l134-140l134-140L7465.4,2446
	z M2623.4,2734l-3-28l-297-3l-298-2v30v30h301h300L2623.4,2734z M5485.4,2701v-60h-370h-370v60v60h370h370V2701z M1605.4,2706
	c0-20-5-25-25-25s-25,5-25,25s5,25,25,25S1605.4,2726,1605.4,2706z M3655.4,2671v-40l-242,2l-243,3l-3,38l-3,37h245h246V2671z
	 M2625.4,2666v-25h-300h-300v25v25h300h300V2666z M6983.4,2621c-33-47-554-709-558-709c-3-1-3,26,0,59l5,59l280,322
	c183,210,281,316,283,305C6995.4,2647,6991.4,2631,6983.4,2621z M7464.4,2326c1-40,0-40-17-18c-188,237-252,324-252,343
	c0,16,37-20,135-132C7454.4,2378,7464.4,2363,7464.4,2326z M1625.4,2616v-45h-45h-45v45v45h45h45V2616z M9020.4,2609
	c9-24,19-49,22-55c4-10-37-13-186-13c-105,0-191,3-191,8c0,4,8,28,17,55l17,47h152h152L9020.4,2609z M2623.4,2599l3-28h-300h-301v23
	c0,13,3,27,7,30c4,4,137,6,297,5l291-3L2623.4,2599z M5485.4,2571v-60h-370h-370v60v60h370h370V2571z M3655.4,2581v-40h-245h-245v40
	v40h245h245V2581z M6713.4,2131c-156-230-285-420-288-420s-4,38-2,84l3,83l282,359c220,279,283,354,285,337
	C6995.4,2558,6913.4,2428,6713.4,2131z M7339.4,2414l127-163l-3-51l-3-50l-132,195c-91,133-133,204-133,223c0,15,4,23,8,18
	C7208.4,2580,7269.4,2503,7339.4,2414z M2623.4,2534l-3-28l-297-3l-298-2v30v30h301h300L2623.4,2534z M1723.4,2492
	c23-32,42-61,42-65c0-3-84-6-186-6c-210,0-201-5-137,80l37,50h101l100-1L1723.4,2492z M3655.4,2491v-40h-245h-245v40v40h245h245
	V2491z M9059.4,2499c16-61,25-58-203-58c-116,0-212,3-214,8c-3,4-2,22,0,40l5,32h203C9052.4,2521,9053.4,2521,9059.4,2499z
	 M5485.4,2436v-65l-367,2l-368,3l-3,49c-2,27-1,55,2,62c4,12,70,14,371,14h365V2436z M6824.4,2140c-94-162-214-367-266-456
	c-70-121-100-163-114-163c-17,0-19,8-19,76v76l83,121c46,67,173,255,283,417c190,282,199,293,202,259
	C6996.4,2438,6973.4,2394,6824.4,2140z M7465.4,2037c0-38-3-67-6-63c-3,3-64,106-135,228c-107,184-129,229-129,262
	c0,39,4,35,135-159l135-199V2037z M2625.4,2466v-25h-300h-300v25v25h300h300V2466z M3655.4,2401v-40h-245h-245v33c0,19,3,37,7,40
	c3,4,114,7,245,7h238V2401z M2623.4,2399l3-28h-300h-301v23c0,13,3,27,7,30c4,4,137,6,297,5l291-3L2623.4,2399z M9073.4,2249l-3-173
	l-217-3l-218-2v175v175h220h220L9073.4,2249z M1805.4,2371v-30h-225h-225v30v30h225h225V2371z M6992.4,1524c-2-2-116-2-253-1l-249,3
	l250,430l250,429l3-428C6994.4,1721,6994.4,1526,6992.4,1524z M7465.4,1721v-200h-135h-135v432v432l135-232l135-232V1721z
	 M2623.4,2334l-3-28l-297-3l-298-2v30v30h301h300L2623.4,2334z M5485.4,2301v-60h-370h-370v60v60h370h370V2301z M3650.4,2304v-38
	h-240h-240l-3,28c-2,16-1,34,1,40c3,9,69,12,243,10l239-2V2304z M1855.4,1591V861h-280h-280v730v730h280h280V1591z M2625.4,2266v-25
	h-300h-300v25v25h300h300V2266z M3655.4,2211v-40l-242,2l-243,3l-3,38l-3,37h245h246V2211z M2620.4,2201v-25l-297-3l-298-2v24
	c0,13,5,26,10,28c6,2,140,3,298,3h287V2201z M5486.4,2227c2-2,2-29,1-60l-4-56h-369h-369v60v60h368
	C5316.4,2231,5484.4,2229,5486.4,2227z M1275.4,1516V861h-35h-35v655v655h35h35V1516z M1955.4,1516V861h-40h-40v655v655h40h40V1516z
	 M2470.4,2131v-25l-222-3l-223-2v30v30l223-2l222-3V2131z M3513.4,1507l2-646h-510h-510v648v647l507-2l508-2L3513.4,1507z
	 M3655.4,2121v-40h-60h-60v40v40h60h60V2121z M8465.4,1721v-410h-490h-490v410v410h490h490V1721z M5485.4,2041v-60h-370h-370v60v60
	h370h370V2041z M2473.4,2065l-3-26h-220l-220,1l-3,25l-3,26h226h226L2473.4,2065z M4305.4,2021v-60h35h34l3-92c3-91,3-93,28-94
	c14-1,30-2,35-3c6,0,11-28,11-63v-63l207-3l207-2v-75v-74l-72-3l-73-3l-3-312l-2-313h-520h-520v610v610h315h315V2021z M6405.4,1471
	V861h-525h-525v315v315h-75h-76l3,73l3,72l207,3l207,2l3,68l3,67h30h30l5,90l5,90l38,3l37,3v60v59h315h315V1471z M3655.4,2031v-40
	h-60h-60v40v40h60h60V2031z M9073.4,1458l2-597h-220h-220v598v597l217-1l218-1L9073.4,1458z M2475.4,1996v-25h-225h-225v25v25h225
	h225V1996z M3650.4,1936v-40h-55l-55,1l-3,42l-3,43l58-3l58-3V1936z M5485.4,1911v-60h-370h-370v60v60h370h370V1911z M2473.4,1929
	l3-28h-225h-226v30v30l223-2l222-3L2473.4,1929z M2473.4,1864l-3-28h-220h-220l-3,28l-3,27h226h226L2473.4,1864z M3655.4,1841v-40
	h-60h-60v40v40h60h60V1841z M4965.4,1813c0-25-5-28-52-40c-29-7-65-21-80-32s-41-20-58-20h-30v60v60h110h110V1813z M5485.4,1781v-60
	h-115c-63,0-115,4-115,8c0,11-61,38-110,50c-28,6-36,14-38,35l-3,27h190h191V1781z M2475.4,1796v-25h-225h-225v25v25h225h225V1796z
	 M5085.4,1806c0-11-12-15-50-15c-46,0-60,7-43,23c3,4,26,7,50,7C5074.4,1821,5085.4,1817,5085.4,1806z M3655.4,1751v-40h-60h-60v40
	v40h60h60V1751z M5154.4,1757c29-8,56-17,59-20s-77-6-178-6s-181,2-179,5c3,2,30,11,60,19C4986.4,1774,5086.4,1775,5154.4,1757z
	 M2473.4,1729l3-28h-225h-226v30v30l223-2l222-3L2473.4,1729z M4815.4,1686c0-22-4-25-35-25c-27,0-35,4-35,18c0,25,9,32,42,32
	C4810.4,1711,4815.4,1707,4815.4,1686z M5235.4,1686v-25h-200h-200v25v25h200h200V1686z M5485.4,1686v-25h-115c-105,0-115,2-115,18
	c0,10,3,22,7,25c3,4,55,7,115,7h108V1686z M3655.4,1661v-40h-60h-60v40v40h60h60V1661z M2473.4,1664l-3-28h-220h-220l-3,28l-3,27
	h226h226L2473.4,1664z M4907.4,1579l3-63l128-3l127-3v66c0,37,4,65,10,65s10-32,10-75v-75h-150h-150v75
	C4885.4,1657,4903.4,1667,4907.4,1579z M8610.4,1529c5-4-21-8-58-8h-67v61v62l58-53C8574.4,1561,8604.4,1534,8610.4,1529z
	 M2475.4,1586v-35h-225h-225v35v35h225h225V1586z M3655.4,1571v-40h-60h-60v40v40h60h60V1571z M5145.4,1571v-40h-110h-110v40v40h110
	h110V1571z M2475.4,1196V861h-225h-225v335v335h225h225V1196z M3650.4,1476v-40l-57-3l-58-3v46v46l58-3l57-3V1476z M6993.4,1449
	c2-27-1-48-5-48s-133-1-285-3l-276-2l-4,48c-2,27-1,51,1,53c3,2,131,3,285,2l281-3L6993.4,1449z M7463.4,1450l-3-52l-132-1l-133-1
	v52v53h136h135L7463.4,1450z M8613.4,1449c-2-29-6-52-10-50c-5,1-33,2-63,2h-55v50v50h66h65L8613.4,1449z M5335.4,1166V861h-45h-45
	v118c0,135-14,177-73,229c-101,88-251,61-317-57c-24-44-28-83-30-282c0-5-20-8-45-8h-45v305v305h300h300V1166z M1030.4,1422
	c69-31,115-105,115-181c-1-69-78-163-145-176c-129-24-237,60-237,184C763.4,1390,903.4,1480,1030.4,1422z M9430.4,1422
	c76-35,115-95,115-177c0-106-81-184-193-184c-43,0-63,6-100,31c-126,83-111,266,28,330C9331.4,1446,9379.4,1446,9430.4,1422z
	 M3655.4,1381v-40h-60h-60v40v40h60h60V1381z M6993.4,1119l2-258h-285h-285v260v260l283-2l282-3L6993.4,1119z M7463.4,1119l2-258
	h-135h-135v260v261l133-3l132-3L7463.4,1119z M8613.4,1119l2-258h-65h-65v260v261l63-3l62-3L8613.4,1119z M3655.4,1291v-40h-60h-60
	v40v40h60h60V1291z M8465.4,1076V861h-490h-490v215v215h490h490V1076z M3655.4,1201v-40h-60h-60v40v40h60h60V1201z M5143.4,1209
	c65-43,82-92,82-231c0-97-3-117-15-117s-15,19-15,108c0,92-3,114-22,152c-45,88-157,114-229,53c-51-43-59-70-59-198
	c0-111-1-115-21-115c-21,0-21,3-17,123c5,153,24,192,113,241C5005.4,1250,5093.4,1242,5143.4,1209z M5115.4,1163c47-34,60-77,60-194
	V861h-135h-135v119c0,115,1,121,27,152C4983.4,1192,5058.4,1205,5115.4,1163z M3655.4,1111v-40h-60h-60v40v40h60h60V1111z
	 M3650.4,1016v-40l-57-3l-58-3v46v46l58-3l57-3V1016z M713.4,995c12-8,29-28,37-44c13-26,19-28,50-23c29,5,41,1,60-17
	c52-49,45-50-231-50c-167,0-253,3-249,10c3,6,16,10,28,10s31,7,41,15c11,8,35,15,53,15c29,0,36,5,45,31
	C567.4,1001,662.4,1031,713.4,995z M3655.4,911v-50h-60h-60v50v50h60h60V911z M7570.4,4426c0-25,3-45,8-45c4,0,7,20,7,45s-3,45-7,45
	C7573.4,4471,7570.4,4451,7570.4,4426z M7765.4,4436c0-19,3-35,8-35c4,0,7,16,8,35c0,19-3,35-8,35
	C7769.4,4471,7765.4,4455,7765.4,4436z M7968.4,4426c0-27,2-38,4-22c2,15,2,37,0,50C7970.4,4466,7968.4,4454,7968.4,4426z
	 M8168.4,4421c0-30,2-43,4-27c2,15,2,39,0,55C8170.4,4464,8168.4,4451,8168.4,4421z M8368.4,4421c0-30,2-43,4-27c2,15,2,39,0,55
	C8370.4,4464,8368.4,4451,8368.4,4421z M7578.4,4271c0-30,2-43,4-27c2,15,2,39,0,55C7580.4,4314,7578.4,4301,7578.4,4271z
	 M7765.4,4269c0-28,3-49,6-45c10,9,12,97,3,97C7769.4,4321,7765.4,4298,7765.4,4269z M7968.4,4271c0-30,2-43,4-27c2,15,2,39,0,55
	C7970.4,4314,7968.4,4301,7968.4,4271z M8168.4,4271c0-30,2-43,4-27c2,15,2,39,0,55C8170.4,4314,8168.4,4301,8168.4,4271z
	 M8368.4,4271c0-30,2-43,4-27c2,15,2,39,0,55C8370.4,4314,8368.4,4301,8368.4,4271z M7578.4,4121c0-30,2-43,4-27c2,15,2,39,0,55
	C7580.4,4164,7578.4,4151,7578.4,4121z M7765.4,4123c0-29,5-52,10-52c7,0,9,18,5,47C7772.4,4183,7765.4,4185,7765.4,4123z
	 M7968.4,4121c0-30,2-43,4-27c2,15,2,39,0,55C7970.4,4164,7968.4,4151,7968.4,4121z M8168.4,4121c0-30,2-43,4-27c2,15,2,39,0,55
	C8170.4,4164,8168.4,4151,8168.4,4121z M8368.4,4121c0-30,2-43,4-27c2,15,2,39,0,55C8370.4,4164,8368.4,4151,8368.4,4121z
	 M7574.4,4009c-4-68-3-88,4-88c4,0,7,23,7,50c0,28-2,50-5,50S7575.4,4015,7574.4,4009z M7766.4,3971c-1-27,2-50,7-50
	c10,0,10,85,1,94C7771.4,4018,7767.4,3999,7766.4,3971z M7968.4,3971c0-30,2-43,4-27c2,15,2,39,0,55
	C7970.4,4014,7968.4,4001,7968.4,3971z M8168.4,3971c0-30,2-43,4-27c2,15,2,39,0,55C8170.4,4014,8168.4,4001,8168.4,3971z
	 M8368.4,3971c0-30,2-43,4-27c2,15,2,39,0,55C8370.4,4014,8368.4,4001,8368.4,3971z M7578.4,3661c0-30,2-43,4-27c2,15,2,39,0,55
	C7580.4,3704,7578.4,3691,7578.4,3661z M7765.4,3661c0-27,4-50,8-50c5,0,9,23,11,50c1,30-2,50-9,50
	C7770.4,3711,7765.4,3689,7765.4,3661z M7968.4,3661c0-30,2-43,4-27c2,15,2,39,0,55C7970.4,3704,7968.4,3691,7968.4,3661z
	 M8168.4,3661c0-30,2-43,4-27c2,15,2,39,0,55C8170.4,3704,8168.4,3691,8168.4,3661z M8368.4,3661c0-30,2-43,4-27c2,15,2,39,0,55
	C8370.4,3704,8368.4,3691,8368.4,3661z M7573.4,3511c-1-28,0-50,5-50c4,0,7,23,7,50C7585.4,3576,7578.4,3576,7573.4,3511z
	 M7968.4,3511c0-30,2-43,4-27c2,15,2,39,0,55C7970.4,3554,7968.4,3541,7968.4,3511z M8168.4,3511c0-30,2-43,4-27c2,15,2,39,0,55
	C8170.4,3554,8168.4,3541,8168.4,3511z M8368.4,3511c0-30,2-43,4-27c2,15,2,39,0,55C8370.4,3554,8368.4,3541,8368.4,3511z
	 M7765.4,3506c0-25,4-45,8-45c5,0,9,20,11,45c1,26-2,45-9,45C7770.4,3551,7765.4,3531,7765.4,3506z M7573.4,3364c5-59,10-63,11-10
	c1,26-3,47-7,47S7571.4,3384,7573.4,3364z M7765.4,3356c0-25,4-45,8-45s9,20,10,45s-3,45-8,45C7769.4,3401,7765.4,3381,7765.4,3356z
	 M7968.4,3356c0-27,2-38,4-22c2,15,2,37,0,50C7970.4,3396,7968.4,3384,7968.4,3356z M8168.4,3351c0-30,2-43,4-27c2,15,2,39,0,55
	C8170.4,3394,8168.4,3381,8168.4,3351z M8368.4,3351c0-30,2-43,4-27c2,15,2,39,0,55C8370.4,3394,8368.4,3381,8368.4,3351z
	 M7573.4,3214c6-65,10-70,11-15c0,28-3,52-7,52S7571.4,3234,7573.4,3214z M7765.4,3200c0-32,4-48,10-44c12,8,10,95-2,95
	C7769.4,3251,7765.4,3228,7765.4,3200z M7968.4,3201c0-30,2-43,4-27c2,15,2,39,0,55C7970.4,3244,7968.4,3231,7968.4,3201z
	 M8168.4,3201c0-30,2-43,4-27c2,15,2,39,0,55C8170.4,3244,8168.4,3231,8168.4,3201z M8368.4,3201c0-30,2-43,4-27c2,15,2,39,0,55
	C8370.4,3244,8368.4,3231,8368.4,3201z M8775.4,3141c0-6,32-10,75-10s75,4,75,10s-32,10-75,10S8775.4,3147,8775.4,3141z
	 M8804.4,2978c-46-35-50-88-9-129c27-26,36-30,68-25c70,12,97,92,47,142C8883.4,2993,8831.4,2999,8804.4,2978z M8897.4,2954
	c26-23,24-78-4-97c-12-9-31-16-42-16c-28,0-66,39-66,67C8785.4,2960,8857.4,2990,8897.4,2954z M8775.4,2761c0-27,5-50,10-50
	c6,0,10,23,10,50c0,28-4,50-10,50C8780.4,2811,8775.4,2789,8775.4,2761z M8824.4,2809c-7-13-5-89,2-94c5-3,9,18,9,45
	C8835.4,2802,8830.4,2822,8824.4,2809z M8865.4,2760c0-31,4-48,10-44c6,3,10,26,10,51c0,24-4,44-10,44
	C8870.4,2811,8865.4,2788,8865.4,2760z M8905.4,2767c0-25,5-48,10-51c6-4,10,13,10,44c0,28-4,51-10,51
	C8910.4,2811,8905.4,2791,8905.4,2767z M7578.4,2821c0-30,2-43,4-27c2,15,2,39,0,55C7580.4,2864,7578.4,2851,7578.4,2821z
	 M7765.4,2823c0-29,4-52,8-52c10,0,9,86-1,96C7768.4,2871,7765.4,2851,7765.4,2823z M7968.4,2821c0-30,2-43,4-27c2,15,2,39,0,55
	C7970.4,2864,7968.4,2851,7968.4,2821z M8168.4,2821c0-30,2-43,4-27c2,15,2,39,0,55C8170.4,2864,8168.4,2851,8168.4,2821z
	 M8368.4,2821c0-30,2-43,4-27c2,15,2,39,0,55C8370.4,2864,8368.4,2851,8368.4,2821z M8368.4,2666c0-33,2-45,4-27s2,45,0,60
	S8368.4,2699,8368.4,2666z M7570.4,2666c0-25,3-45,8-45c4,0,7,20,7,45s-3,45-7,45C7573.4,2711,7570.4,2691,7570.4,2666z
	 M7765.4,2666c0-25,4-45,9-45s9,20,9,45c-1,25-5,45-10,45C7769.4,2711,7765.4,2691,7765.4,2666z M7968.4,2666c0-27,2-38,4-22
	c2,15,2,37,0,50C7970.4,2706,7968.4,2694,7968.4,2666z M8168.4,2666c0-27,2-38,4-22c2,15,2,37,0,50
	C8170.4,2706,8168.4,2694,8168.4,2666z M7578.4,2511c0-30,2-43,4-27c2,15,2,39,0,55C7580.4,2554,7578.4,2541,7578.4,2511z
	 M7765.4,2518c0-26,3-47,8-47c9,0,9,76,0,86C7768.4,2561,7765.4,2543,7765.4,2518z M7968.4,2511c0-30,2-43,4-27c2,15,2,39,0,55
	C7970.4,2554,7968.4,2541,7968.4,2511z M8168.4,2511c0-30,2-43,4-27c2,15,2,39,0,55C8170.4,2554,8168.4,2541,8168.4,2511z
	 M8368.4,2511c0-30,2-43,4-27c2,15,2,39,0,55C8370.4,2554,8368.4,2541,8368.4,2511z M7578.4,2361c0-30,2-43,4-27c2,15,2,39,0,55
	C7580.4,2404,7578.4,2391,7578.4,2361z M7765.4,2362c0-30,3-52,6-48c10,10,13,71,3,87C7769.4,2411,7766.4,2398,7765.4,2362z
	 M7968.4,2361c0-30,2-43,4-27c2,15,2,39,0,55C7970.4,2404,7968.4,2391,7968.4,2361z M8168.4,2361c0-30,2-43,4-27c2,15,2,39,0,55
	C8170.4,2404,8168.4,2391,8168.4,2361z M8368.4,2361c0-30,2-43,4-27c2,15,2,39,0,55C8370.4,2404,8368.4,2391,8368.4,2361z
	 M8759.4,2226c0-77,2-107,3-67c2,40,2,103,0,140S8759.4,2303,8759.4,2226z M8845.4,2227c0-84,4-136,10-136s10,50,10,129
	c0,76-4,132-10,136S8845.4,2314,8845.4,2227z M8935.4,2221c0-80,4-130,10-130s10,50,10,130s-4,130-10,130S8935.4,2301,8935.4,2221z
	 M1350.4,1651v-554l228-1h228l-1,549c0,302-3,552-5,554c-3,3-5-241-5-542v-547l-37,3l-38,3l-5,545l-5,545l-3-548l-2-548l-37,3l-38,3
	l-5,545l-5,545l-3-548l-2-548l-37,3l-38,3l-5,545l-5,545l-3-548l-2-548l-37,3l-38,3l-5,545l-5,545l-3-548l-2-548l-37,3l-38,3l-5,545
	l-5,545V1651z M1345.4,1041c0-6,85-10,236-10c154,0,233,3,229,10c-4,6-93,10-236,10C1428.4,1051,1345.4,1047,1345.4,1041z
	 M1345.4,971c0-6,83-10,229-10c143,0,232,4,236,10c4,7-75,10-229,10C1430.4,981,1345.4,977,1345.4,971z M1350.4,901
	c4-6,92-10,230-10s226,4,230,10c4,7-75,10-230,10S1346.4,908,1350.4,901z M2605.4,1902c0-33,5-63,10-66c6-4,10,18,10,59
	c0,37-4,66-10,66S2605.4,1935,2605.4,1902z M2695.4,1901v-61l68,3l67,3v55v55l-67,3l-68,3V1901z M2815.4,1901v-50h-55h-55v50v50h55
	h55V1901z M2855.4,1901v-61l68,3l67,3v55v55l-67,3l-68,3V1901z M2975.4,1901v-50h-55h-55v50v50h55h55V1901z M3015.4,1901v-61l68,3
	l67,3v55v55l-67,3l-68,3V1901z M3135.4,1901v-50h-55h-55v50v50h55h55V1901z M3175.4,1901v-61l68,3l67,3l-1,55v55l-67,3l-67,3V1901z
	 M3295.4,1901v-50h-55h-55v50v50h55h55V1901z M3375.4,1896c0-37,4-65,10-65s10,28,10,65s-4,65-10,65S3375.4,1933,3375.4,1896z
	 M2612.4,1794c-11-10-8-121,3-128c6-4,10,20,10,64C2625.4,1801,2624.4,1807,2612.4,1794z M3382.4,1794c-11-10-8-123,3-123
	c6,0,10,28,10,65C3395.4,1801,3394.4,1807,3382.4,1794z M2695.4,1731v-61l67,3l67,3l3,32c2,17-1,34-7,38s-10-7-10-29v-36h-55h-55v50
	v50h55c30,0,55-4,55-10c0-5,4-10,10-10c5,0,7,7,4,15c-5,11-22,15-70,15h-64V1731z M2855.4,1731v-61l67,3l67,3l3,32c2,17-1,34-7,38
	s-10-7-10-29v-36h-55h-55v50v50h55c30,0,55-4,55-10c0-5,4-10,10-10c5,0,7,7,4,15c-5,11-22,15-70,15h-64V1731z M3015.4,1731v-61l67,3
	l67,3l3,32c2,17-1,34-7,38s-10-7-10-29v-36h-55h-55v50v50h55c30,0,55-4,55-10c0-5,4-10,10-10c5,0,7,7,4,15c-5,11-22,15-70,15h-64
	V1731z M3175.4,1731v-61l68,3l67,3v58v57h-67h-68V1731z M3295.4,1731v-50h-55h-55v50v50h55h55V1731z M2605.4,1566c0-37,4-65,10-65
	s10,28,10,65s-4,65-10,65S2605.4,1603,2605.4,1566z M2702.4,1625c-4-4-7-34-7-66v-59l67,3l67,3v60l1,60l-60,3
	C2736.4,1631,2706.4,1629,2702.4,1625z M2816.4,1617c2-2,2-27,1-55l-4-51h-54h-54v48c0,27,3,52,7,55
	C2719.4,1622,2809.4,1624,2816.4,1617z M2862.4,1625c-4-4-7-34-7-66v-59l67,3l67,3l1,60v60l-60,3
	C2896.4,1631,2866.4,1629,2862.4,1625z M2975.4,1566v-55h-55h-55v55v55h55h55V1566z M3022.4,1625c-4-4-7-34-7-66v-59l68,3l67,3v60
	v60l-60,3C3056.4,1631,3026.4,1629,3022.4,1625z M3135.4,1566v-55h-55h-55v55v55h55h55V1566z M3182.4,1624c-4-3-7-33-7-65v-59l67,3
	l68,3l1,45c2,77-1,80-65,80C3214.4,1631,3185.4,1628,3182.4,1624z M3295.4,1566v-55h-55h-55v48c0,27,3,52,7,55c3,4,28,7,55,7h48
	V1566z M3375.4,1566c0-37,4-65,10-65s10,28,10,65s-4,65-10,65S3375.4,1603,3375.4,1566z M2605.4,1396c0-37,4-65,10-65s10,28,10,65
	s-4,65-10,65S2605.4,1433,2605.4,1396z M2697.4,1399l3-63h65h65l2,45c3,77,0,80-73,80h-65L2697.4,1399z M2815.4,1398v-52h-52h-53
	l-3,53l-3,52h55h56V1398z M2855.4,1396v-66l68,3l67,3l2,45c3,77,0,80-73,80h-64V1396z M2975.4,1398v-53l-47,2c-27,1-51,3-55,3
	c-5,1-8,24-8,51v50h55h55V1398z M3015.4,1396v-66l68,3l67,3l2,45c3,77,0,80-73,80h-64V1396z M3135.4,1398v-53l-47,2c-27,1-51,3-55,3
	c-5,1-8,24-8,51v50h55h55V1398z M3175.4,1396v-65h65c72,0,67-6,69,80l1,45l-67,3l-68,3V1396z M3295.4,1398v-53l-47,2
	c-27,1-51,3-55,3c-5,1-8,24-8,51v50h55h55V1398z M3375.4,1396c0-37,4-65,10-65s10,28,10,65s-4,65-10,65S3375.4,1433,3375.4,1396z
	 M2612.4,1294c-11-10-8-121,3-128c6-4,10,20,10,64C2625.4,1301,2624.4,1307,2612.4,1294z M3382.4,1294c-11-10-8-121,3-128
	c6-4,10,20,10,64C3395.4,1301,3394.4,1307,3382.4,1294z M2695.4,1231v-61l68,3l67,3v55v55l-67,3l-68,3V1231z M2815.4,1231v-50h-55
	h-55v50v50h55h55V1231z M2855.4,1231v-61l68,3l67,3v55v55l-67,3l-68,3V1231z M2975.4,1231v-50h-55h-55v50v50h55h55V1231z
	 M3015.4,1231v-61l67,3l67,3l1,55v55l-67,3l-68,3V1231z M3135.4,1231v-50h-55h-55v50v50h55h55V1231z M3175.4,1231v-61l67,3l67,3v55
	l1,55l-67,3l-68,3V1231z M3295.4,1231v-50h-55h-55v50v50h55h55V1231z M2612.4,1124c-11-10-8-123,3-123c6,0,10,28,10,65
	C2625.4,1131,2624.4,1137,2612.4,1124z M3375.4,1066c0-37,4-65,10-65s10,28,10,65s-4,65-10,65S3375.4,1103,3375.4,1066z
	 M2695.4,1061v-61l68,3l67,3l1,58l2,57h-69h-69V1061z M2815.4,1061v-50h-55h-55v50v50h55h55V1061z M2855.4,1061v-61l68,3l67,3l1,58
	l2,57h-69h-69V1061z M2975.4,1061v-50h-55h-55v50v50h55h55V1061z M3015.4,1061v-61l68,3l67,3l1,45c1,68-1,70-72,70h-64V1061z
	 M3135.4,1061v-50h-55h-55v50v50h55h55V1061z M3175.4,1061v-61l67,3l67,3l2,40c4,72,0,75-72,75h-64V1061z M3295.4,1061v-50h-55h-55
	v50v50h55h55V1061z M8168.4,1981c0-30,2-43,4-27c2,15,2,39,0,55C8170.4,2024,8168.4,2011,8168.4,1981z M8368.4,1976c0-33,2-45,4-27
	s2,45,0,60S8368.4,2009,8368.4,1976z M7578.4,1976c0-27,2-38,4-22c2,15,2,37,0,50C7580.4,2016,7578.4,2004,7578.4,1976z
	 M7765.4,1976c0-25,4-45,8-45c5,0,9,20,8,45C7780.4,2035,7765.4,2035,7765.4,1976z M7968.4,1976c0-27,2-38,4-22c2,15,2,37,0,50
	C7970.4,2016,7968.4,2004,7968.4,1976z M7578.4,1821c0-30,2-43,4-27c2,15,2,39,0,55C7580.4,1864,7578.4,1851,7578.4,1821z
	 M7765.4,1820c0-31,4-48,10-44c12,7,10,95-2,95C7769.4,1871,7765.4,1848,7765.4,1820z M7968.4,1821c0-30,2-43,4-27c2,15,2,39,0,55
	C7970.4,1864,7968.4,1851,7968.4,1821z M8168.4,1821c0-30,2-43,4-27c2,15,2,39,0,55C8170.4,1864,8168.4,1851,8168.4,1821z
	 M8368.4,1821c0-30,2-43,4-27c2,15,2,39,0,55C8370.4,1864,8368.4,1851,8368.4,1821z M7578.4,1671c0-30,2-43,4-27c2,15,2,39,0,55
	C7580.4,1714,7578.4,1701,7578.4,1671z M7765.4,1671c0-32,4-49,10-45c6,3,10,24,10,45s-4,42-10,45
	C7769.4,1720,7765.4,1703,7765.4,1671z M7968.4,1671c0-30,2-43,4-27c2,15,2,39,0,55C7970.4,1714,7968.4,1701,7968.4,1671z
	 M8168.4,1671c0-30,2-43,4-27c2,15,2,39,0,55C8170.4,1714,8168.4,1701,8168.4,1671z M8368.4,1671c0-30,2-43,4-27c2,15,2,39,0,55
	C8370.4,1714,8368.4,1701,8368.4,1671z M7578.4,1521c0-30,2-43,4-27c2,15,2,39,0,55C7580.4,1564,7578.4,1551,7578.4,1521z
	 M7765.4,1522c0-28,4-51,8-51c12,0,14,88,2,95C7769.4,1570,7765.4,1553,7765.4,1522z M7968.4,1521c0-30,2-43,4-27c2,15,2,39,0,55
	C7970.4,1564,7968.4,1551,7968.4,1521z M8168.4,1521c0-30,2-43,4-27c2,15,2,39,0,55C8170.4,1564,8168.4,1551,8168.4,1521z
	 M8368.4,1521c0-30,2-43,4-27c2,15,2,39,0,55C8370.4,1564,8368.4,1551,8368.4,1521z M3795.4,2017c0-31,5-56,10-56c6,0,10,22,10,49
	c0,28-4,53-10,56C3799.4,2070,3795.4,2051,3795.4,2017z M3885.4,2017c0-31,4-55,8-52c10,6,9,92-1,102
	C3888.4,2071,3885.4,2049,3885.4,2017z M3972.4,2064c-11-10-8-103,3-103c6,0,10,25,10,55C3985.4,2072,3984.4,2076,3972.4,2064z
	 M4055.4,2011c0-27,5-50,10-50c6,0,10,23,10,50c0,28-4,50-10,50C4060.4,2061,4055.4,2039,4055.4,2011z M4145.4,2011c0-27,5-50,10-50
	c6,0,10,23,10,50c0,28-4,50-10,50C4150.4,2061,4145.4,2039,4145.4,2011z M4235.4,2011c0-27,5-50,10-50c6,0,10,23,10,50
	c0,28-4,50-10,50C4240.4,2061,4235.4,2039,4235.4,2011z M3797.4,1901c0-19,2-27,5-17c2,9,2,25,0,35
	C3799.4,1928,3797.4,1920,3797.4,1901z M3887.4,1901c0-19,2-27,5-17c2,9,2,25,0,35C3889.4,1928,3887.4,1920,3887.4,1901z
	 M3977.4,1901c0-19,2-27,5-17c2,9,2,25,0,35C3979.4,1928,3977.4,1920,3977.4,1901z M4067.4,1901c0-19,2-27,5-17c2,9,2,25,0,35
	C4069.4,1928,4067.4,1920,4067.4,1901z M4145.4,1916c0-8,4-15,8-15c5,0,9,7,9,15s-4,15-9,15C4149.4,1931,4145.4,1924,4145.4,1916z
	 M4237.4,1901c0-19,2-27,5-17c2,9,2,25,0,35C4239.4,1928,4237.4,1920,4237.4,1901z M4327.4,1901c0-19,2-27,5-17c2,9,2,25,0,35
	C4329.4,1928,4327.4,1920,4327.4,1901z M3797.4,1816c0-16,2-22,5-12c2,9,2,23,0,30C3799.4,1840,3797.4,1833,3797.4,1816z
	 M3887.4,1811c0-19,2-27,5-17c2,9,2,25,0,35C3889.4,1838,3887.4,1830,3887.4,1811z M3977.4,1811c0-19,2-27,5-17c2,9,2,25,0,35
	C3979.4,1838,3977.4,1830,3977.4,1811z M4067.4,1816c0-16,2-22,5-12c2,9,2,23,0,30C4069.4,1840,4067.4,1833,4067.4,1816z
	 M4150.4,1830c-4-6-5-12-2-15c2-3,7,2,10,11C4165.4,1843,4159.4,1846,4150.4,1830z M4237.4,1816c0-16,2-22,5-12c2,9,2,23,0,30
	C4239.4,1840,4237.4,1833,4237.4,1816z M4327.4,1816c0-16,2-22,5-12c2,9,2,23,0,30C4329.4,1840,4327.4,1833,4327.4,1816z
	 M3797.4,1731c0-19,2-27,5-17c2,9,2,25,0,35C3799.4,1758,3797.4,1750,3797.4,1731z M3887.4,1731c0-19,2-27,5-17c2,9,2,25,0,35
	C3889.4,1758,3887.4,1750,3887.4,1731z M3977.4,1731c0-19,2-27,5-17c2,9,2,25,0,35C3979.4,1758,3977.4,1750,3977.4,1731z
	 M4327.4,1731c0-19,2-27,5-17c2,9,2,25,0,35C4329.4,1758,4327.4,1750,4327.4,1731z M4067.4,1726c0-16,2-22,5-12c2,9,2,23,0,30
	C4069.4,1750,4067.4,1743,4067.4,1726z M4149.4,1726c-2-33,11-33,14,0c1,14-2,25-6,25S4149.4,1740,4149.4,1726z M4237.4,1726
	c0-16,2-22,5-12c2,9,2,23,0,30C4239.4,1750,4237.4,1743,4237.4,1726z M3797.4,1641c0-19,2-27,5-17c2,9,2,25,0,35
	C3799.4,1668,3797.4,1660,3797.4,1641z M3887.4,1641c0-19,2-27,5-17c2,9,2,25,0,35C3889.4,1668,3887.4,1660,3887.4,1641z
	 M3977.4,1641c0-19,2-27,5-17c2,9,2,25,0,35C3979.4,1668,3977.4,1660,3977.4,1641z M4067.4,1641c0-19,2-27,5-17c2,9,2,25,0,35
	C4069.4,1668,4067.4,1660,4067.4,1641z M4237.4,1641c0-19,2-27,5-17c2,9,2,25,0,35C4239.4,1668,4237.4,1660,4237.4,1641z
	 M4327.4,1641c0-19,2-27,5-17c2,9,2,25,0,35C4329.4,1668,4327.4,1660,4327.4,1641z M4148.4,1636c0-14,3-25,8-25c4,0,6,10,4,21
	C4154.4,1664,4148.4,1666,4148.4,1636z M3797.4,1551c0-19,2-27,5-17c2,9,2,25,0,35C3799.4,1578,3797.4,1570,3797.4,1551z
	 M3887.4,1551c0-19,2-27,5-17c2,9,2,25,0,35C3889.4,1578,3887.4,1570,3887.4,1551z M3977.4,1551c0-19,2-27,5-17c2,9,2,25,0,35
	C3979.4,1578,3977.4,1570,3977.4,1551z M4067.4,1551c0-19,2-27,5-17c2,9,2,25,0,35C4069.4,1578,4067.4,1570,4067.4,1551z
	 M4148.4,1551c0-16,4-30,9-30c10,0,10,31,0,48C4151.4,1577,4148.4,1571,4148.4,1551z M4237.4,1551c0-19,2-27,5-17c2,9,2,25,0,35
	C4239.4,1578,4237.4,1570,4237.4,1551z M4327.4,1551c0-19,2-27,5-17c2,9,2,25,0,35C4329.4,1578,4327.4,1570,4327.4,1551z
	 M4417.4,1551c0-19,2-27,5-17c2,9,2,25,0,35C4419.4,1578,4417.4,1570,4417.4,1551z M4507.4,1551c0-19,2-27,5-17c2,9,2,25,0,35
	C4509.4,1578,4507.4,1570,4507.4,1551z M4597.4,1551c0-19,2-27,5-17c2,9,2,25,0,35C4599.4,1578,4597.4,1570,4597.4,1551z
	 M4767.4,1551c0-19,2-27,5-17c2,9,2,25,0,35C4769.4,1578,4767.4,1570,4767.4,1551z M3797.4,1461c0-19,2-27,5-17c2,9,2,25,0,35
	C3799.4,1488,3797.4,1480,3797.4,1461z M3887.4,1461c0-19,2-27,5-17c2,9,2,25,0,35C3889.4,1488,3887.4,1480,3887.4,1461z
	 M3977.4,1461c0-19,2-27,5-17c2,9,2,25,0,35C3979.4,1488,3977.4,1480,3977.4,1461z M4067.4,1461c0-19,2-27,5-17c2,9,2,25,0,35
	C4069.4,1488,4067.4,1480,4067.4,1461z M4148.4,1466c0-14,3-25,6-25c4,0,7,11,7,25s-3,25-7,25C4151.4,1491,4148.4,1480,4148.4,1466z
	 M4237.4,1461c0-19,2-27,5-17c2,9,2,25,0,35C4239.4,1488,4237.4,1480,4237.4,1461z M4327.4,1461c0-19,2-27,5-17c2,9,2,25,0,35
	C4329.4,1488,4327.4,1480,4327.4,1461z M4417.4,1461c0-19,2-27,5-17c2,9,2,25,0,35C4419.4,1488,4417.4,1480,4417.4,1461z
	 M4507.4,1461c0-19,2-27,5-17c2,9,2,25,0,35C4509.4,1488,4507.4,1480,4507.4,1461z M4597.4,1461c0-19,2-27,5-17c2,9,2,25,0,35
	C4599.4,1488,4597.4,1480,4597.4,1461z M3797.4,1371c0-19,2-27,5-17c2,9,2,25,0,35C3799.4,1398,3797.4,1390,3797.4,1371z
	 M3887.4,1371c0-19,2-27,5-17c2,9,2,25,0,35C3889.4,1398,3887.4,1390,3887.4,1371z M3977.4,1371c0-19,2-27,5-17c2,9,2,25,0,35
	C3979.4,1398,3977.4,1390,3977.4,1371z M4067.4,1371c0-19,2-27,5-17c2,9,2,25,0,35C4069.4,1398,4067.4,1390,4067.4,1371z
	 M4145.4,1376c0-14,3-25,8-25c4,0,7,11,7,25s-3,25-7,25C4148.4,1401,4145.4,1390,4145.4,1376z M4237.4,1376c0-16,2-22,5-12
	c2,9,2,23,0,30C4239.4,1400,4237.4,1393,4237.4,1376z M4327.4,1371c0-19,2-27,5-17c2,9,2,25,0,35
	C4329.4,1398,4327.4,1390,4327.4,1371z M4417.4,1371c0-19,2-27,5-17c2,9,2,25,0,35C4419.4,1398,4417.4,1390,4417.4,1371z
	 M4507.4,1371c0-19,2-27,5-17c2,9,2,25,0,35C4509.4,1398,4507.4,1390,4507.4,1371z M4597.4,1376c0-16,2-22,5-12c2,9,2,23,0,30
	C4599.4,1400,4597.4,1393,4597.4,1376z M3797.4,1201c0-19,2-27,5-17c2,9,2,25,0,35C3799.4,1228,3797.4,1220,3797.4,1201z
	 M3887.4,1201c0-19,2-27,5-17c2,9,2,25,0,35C3889.4,1228,3887.4,1220,3887.4,1201z M3977.4,1201c0-19,2-27,5-17c2,9,2,25,0,35
	C3979.4,1228,3977.4,1220,3977.4,1201z M4067.4,1201c0-19,2-27,5-17c2,9,2,25,0,35C4069.4,1228,4067.4,1220,4067.4,1201z
	 M4237.4,1201c0-19,2-27,5-17c2,9,2,25,0,35C4239.4,1228,4237.4,1220,4237.4,1201z M4327.4,1201c0-19,2-27,5-17c2,9,2,25,0,35
	C4329.4,1228,4327.4,1220,4327.4,1201z M4417.4,1201c0-19,2-27,5-17c2,9,2,25,0,35C4419.4,1228,4417.4,1220,4417.4,1201z
	 M4507.4,1201c0-19,2-27,5-17c2,9,2,25,0,35C4509.4,1228,4507.4,1220,4507.4,1201z M4597.4,1196c0-16,2-22,5-12c2,9,2,23,0,30
	C4599.4,1220,4597.4,1213,4597.4,1196z M4145.4,1186c0-8,4-15,8-15c5,0,9,7,9,15s-4,15-9,15C4149.4,1201,4145.4,1194,4145.4,1186z
	 M3797.4,1111c0-19,2-27,5-17c2,9,2,25,0,35C3799.4,1138,3797.4,1130,3797.4,1111z M3887.4,1111c0-19,2-27,5-17c2,9,2,25,0,35
	C3889.4,1138,3887.4,1130,3887.4,1111z M3977.4,1111c0-19,2-27,5-17c2,9,2,25,0,35C3979.4,1138,3977.4,1130,3977.4,1111z
	 M4067.4,1111c0-19,2-27,5-17c2,9,2,25,0,35C4069.4,1138,4067.4,1130,4067.4,1111z M4237.4,1111c0-19,2-27,5-17c2,9,2,25,0,35
	C4239.4,1138,4237.4,1130,4237.4,1111z M4327.4,1111c0-19,2-27,5-17c2,9,2,25,0,35C4329.4,1138,4327.4,1130,4327.4,1111z
	 M4417.4,1111c0-19,2-27,5-17c2,9,2,25,0,35C4419.4,1138,4417.4,1130,4417.4,1111z M4507.4,1111c0-19,2-27,5-17c2,9,2,25,0,35
	C4509.4,1138,4507.4,1130,4507.4,1111z M4597.4,1111c0-19,2-27,5-17c2,9,2,25,0,35C4599.4,1138,4597.4,1130,4597.4,1111z
	 M4145.4,1091c0-5,5-10,11-10c5,0,7,5,4,10c-3,6-8,10-11,10C4147.4,1101,4145.4,1097,4145.4,1091z M3797.4,1021c0-19,2-27,5-17
	c2,9,2,25,0,35C3799.4,1048,3797.4,1040,3797.4,1021z M3887.4,1021c0-19,2-27,5-17c2,9,2,25,0,35
	C3889.4,1048,3887.4,1040,3887.4,1021z M3977.4,1021c0-19,2-27,5-17c2,9,2,25,0,35C3979.4,1048,3977.4,1040,3977.4,1021z
	 M4067.4,1021c0-19,2-27,5-17c2,9,2,25,0,35C4069.4,1048,4067.4,1040,4067.4,1021z M4148.4,1022c1-16,5-27,9-25c10,6,6,54-4,54
	C4149.4,1051,4147.4,1038,4148.4,1022z M4237.4,1021c0-19,2-27,5-17c2,9,2,25,0,35C4239.4,1048,4237.4,1040,4237.4,1021z
	 M4327.4,1021c0-19,2-27,5-17c2,9,2,25,0,35C4329.4,1048,4327.4,1040,4327.4,1021z M4417.4,1021c0-19,2-27,5-17c2,9,2,25,0,35
	C4419.4,1048,4417.4,1040,4417.4,1021z M4507.4,1021c0-19,2-27,5-17c2,9,2,25,0,35C4509.4,1048,4507.4,1040,4507.4,1021z
	 M4597.4,1021c0-19,2-27,5-17c2,9,2,25,0,35C4599.4,1048,4597.4,1040,4597.4,1021z M5825.4,2017c0-31,5-56,10-56c6,0,10,22,10,49
	c0,28-4,53-10,56C5829.4,2070,5825.4,2051,5825.4,2017z M5915.4,2015c0-32,3-54,7-50c10,10,11,96,1,102
	C5919.4,2070,5915.4,2046,5915.4,2015z M6002.4,2064c-11-10-8-103,3-103c6,0,10,25,10,55C6015.4,2072,6014.4,2076,6002.4,2064z
	 M6265.4,2017c0-31,5-56,10-56c6,0,10,22,10,49c0,28-4,53-10,56C6269.4,2070,6265.4,2051,6265.4,2017z M6085.4,2011c0-27,5-50,10-50
	c6,0,10,23,10,50c0,28-4,50-10,50C6090.4,2061,6085.4,2039,6085.4,2011z M6175.4,2011c0-27,5-50,10-50c6,0,10,23,10,50
	c0,28-4,50-10,50C6180.4,2061,6175.4,2039,6175.4,2011z M5737.4,1906c0-16,2-22,5-12c2,9,2,23,0,30
	C5739.4,1930,5737.4,1923,5737.4,1906z M5827.4,1901c0-19,2-27,5-17c2,9,2,25,0,35C5829.4,1928,5827.4,1920,5827.4,1901z
	 M5917.4,1901c0-19,2-27,5-17c2,9,2,25,0,35C5919.4,1928,5917.4,1920,5917.4,1901z M6007.4,1901c0-19,2-27,5-17c2,9,2,25,0,35
	C6009.4,1928,6007.4,1920,6007.4,1901z M6097.4,1901c0-19,2-27,5-17c2,9,2,25,0,35C6099.4,1928,6097.4,1920,6097.4,1901z
	 M6175.4,1906c0-14,4-25,9-25s9,11,9,25s-4,25-9,25S6175.4,1920,6175.4,1906z M6267.4,1901c0-19,2-27,5-17c2,9,2,25,0,35
	C6269.4,1928,6267.4,1920,6267.4,1901z M5737.4,1816c0-16,2-22,5-12c2,9,2,23,0,30C5739.4,1840,5737.4,1833,5737.4,1816z
	 M5827.4,1816c0-16,2-22,5-12c2,9,2,23,0,30C5829.4,1840,5827.4,1833,5827.4,1816z M5917.4,1811c0-19,2-27,5-17c2,9,2,25,0,35
	C5919.4,1838,5917.4,1830,5917.4,1811z M6007.4,1811c0-19,2-27,5-17c2,9,2,25,0,35C6009.4,1838,6007.4,1830,6007.4,1811z
	 M6097.4,1816c0-16,2-22,5-12c2,9,2,23,0,30C6099.4,1840,6097.4,1833,6097.4,1816z M6175.4,1831c0-5,5-10,10-10c6,0,10,5,10,10
	c0,6-4,10-10,10C6180.4,1841,6175.4,1837,6175.4,1831z M6267.4,1816c0-16,2-22,5-12c2,9,2,23,0,30
	C6269.4,1840,6267.4,1833,6267.4,1816z M6175.4,1801c0-5,5-10,10-10c6,0,10,5,10,10c0,6-4,10-10,10
	C6180.4,1811,6175.4,1807,6175.4,1801z M5827.4,1731c0-19,2-27,5-17c2,9,2,25,0,35C5829.4,1758,5827.4,1750,5827.4,1731z
	 M5917.4,1731c0-19,2-27,5-17c2,9,2,25,0,35C5919.4,1758,5917.4,1750,5917.4,1731z M6007.4,1731c0-19,2-27,5-17c2,9,2,25,0,35
	C6009.4,1758,6007.4,1750,6007.4,1731z M5737.4,1726c0-16,2-22,5-12c2,9,2,23,0,30C5739.4,1750,5737.4,1743,5737.4,1726z
	 M6097.4,1726c0-16,2-22,5-12c2,9,2,23,0,30C6099.4,1750,6097.4,1743,6097.4,1726z M6175.4,1726c0-14,4-25,9-25s9,11,9,25
	s-4,25-9,25S6175.4,1740,6175.4,1726z M6267.4,1726c0-16,2-22,5-12c2,9,2,23,0,30C6269.4,1750,6267.4,1743,6267.4,1726z
	 M5737.4,1641c0-19,2-27,5-17c2,9,2,25,0,35C5739.4,1668,5737.4,1660,5737.4,1641z M5827.4,1641c0-19,2-27,5-17c2,9,2,25,0,35
	C5829.4,1668,5827.4,1660,5827.4,1641z M5917.4,1641c0-19,2-27,5-17c2,9,2,25,0,35C5919.4,1668,5917.4,1660,5917.4,1641z
	 M6007.4,1641c0-19,2-27,5-17c2,9,2,25,0,35C6009.4,1668,6007.4,1660,6007.4,1641z M6097.4,1641c0-19,2-27,5-17c2,9,2,25,0,35
	C6099.4,1668,6097.4,1660,6097.4,1641z M6267.4,1641c0-19,2-27,5-17c2,9,2,25,0,35C6269.4,1668,6267.4,1660,6267.4,1641z
	 M6175.4,1636c0-14,5-25,10-25c6,0,10,11,10,25s-4,25-10,25C6180.4,1661,6175.4,1650,6175.4,1636z M5297.4,1551c0-19,2-27,5-17
	c2,9,2,25,0,35C5299.4,1578,5297.4,1570,5297.4,1551z M5477.4,1551c0-19,2-27,5-17c2,9,2,25,0,35
	C5479.4,1578,5477.4,1570,5477.4,1551z M5567.4,1551c0-19,2-27,5-17c2,9,2,25,0,35C5569.4,1578,5567.4,1570,5567.4,1551z
	 M5657.4,1551c0-19,2-27,5-17c2,9,2,25,0,35C5659.4,1578,5657.4,1570,5657.4,1551z M5737.4,1551c0-19,2-27,5-17c2,9,2,25,0,35
	C5739.4,1578,5737.4,1570,5737.4,1551z M5827.4,1551c0-19,2-27,5-17c2,9,2,25,0,35C5829.4,1578,5827.4,1570,5827.4,1551z
	 M5917.4,1551c0-19,2-27,5-17c2,9,2,25,0,35C5919.4,1578,5917.4,1570,5917.4,1551z M6007.4,1551c0-19,2-27,5-17c2,9,2,25,0,35
	C6009.4,1578,6007.4,1570,6007.4,1551z M6097.4,1551c0-19,2-27,5-17c2,9,2,25,0,35C6099.4,1578,6097.4,1570,6097.4,1551z
	 M6175.4,1551c0-16,4-30,8-30s8,14,7,30c0,17-3,30-7,30C6178.4,1581,6175.4,1568,6175.4,1551z M6267.4,1551c0-19,2-27,5-17
	c2,9,2,25,0,35C6269.4,1578,6267.4,1570,6267.4,1551z M5477.4,1461c0-19,2-27,5-17c2,9,2,25,0,35
	C5479.4,1488,5477.4,1480,5477.4,1461z M5567.4,1461c0-19,2-27,5-17c2,9,2,25,0,35C5569.4,1488,5567.4,1480,5567.4,1461z
	 M5653.4,1461c2-16,6-30,8-30s4,14,4,30c0,17-4,30-8,30C5652.4,1491,5650.4,1478,5653.4,1461z M5737.4,1461c0-19,2-27,5-17
	c2,9,2,25,0,35C5739.4,1488,5737.4,1480,5737.4,1461z M5827.4,1461c0-19,2-27,5-17c2,9,2,25,0,35
	C5829.4,1488,5827.4,1480,5827.4,1461z M5917.4,1461c0-19,2-27,5-17c2,9,2,25,0,35C5919.4,1488,5917.4,1480,5917.4,1461z
	 M6007.4,1461c0-19,2-27,5-17c2,9,2,25,0,35C6009.4,1488,6007.4,1480,6007.4,1461z M6097.4,1461c0-19,2-27,5-17c2,9,2,25,0,35
	C6099.4,1488,6097.4,1480,6097.4,1461z M6175.4,1466c0-14,4-25,10-25c5,0,9,11,8,25s-6,25-10,25S6175.4,1480,6175.4,1466z
	 M6267.4,1461c0-19,2-27,5-17c2,9,2,25,0,35C6269.4,1488,6267.4,1480,6267.4,1461z M5477.4,1371c0-19,2-27,5-17c2,9,2,25,0,35
	C5479.4,1398,5477.4,1390,5477.4,1371z M5567.4,1371c0-19,2-27,5-17c2,9,2,25,0,35C5569.4,1398,5567.4,1390,5567.4,1371z
	 M5653.4,1376c-3-14-1-25,3-25c5,0,9,11,9,25s-2,25-4,25S5655.4,1390,5653.4,1376z M5737.4,1376c0-16,2-22,5-12c2,9,2,23,0,30
	C5739.4,1400,5737.4,1393,5737.4,1376z M5827.4,1371c0-19,2-27,5-17c2,9,2,25,0,35C5829.4,1398,5827.4,1390,5827.4,1371z
	 M5917.4,1371c0-19,2-27,5-17c2,9,2,25,0,35C5919.4,1398,5917.4,1390,5917.4,1371z M6007.4,1371c0-19,2-27,5-17c2,9,2,25,0,35
	C6009.4,1398,6007.4,1390,6007.4,1371z M6097.4,1376c0-16,2-22,5-12c2,9,2,23,0,30C6099.4,1400,6097.4,1393,6097.4,1376z
	 M6175.4,1376c0-14,4-25,8-25s8,11,8,25s-4,25-8,25S6175.4,1390,6175.4,1376z M6267.4,1376c0-16,2-22,5-12c2,9,2,23,0,30
	C6269.4,1400,6267.4,1393,6267.4,1376z M5477.4,1201c0-19,2-27,5-17c2,9,2,25,0,35C5479.4,1228,5477.4,1220,5477.4,1201z
	 M5567.4,1201c0-19,2-27,5-17c2,9,2,25,0,35C5569.4,1228,5567.4,1220,5567.4,1201z M5827.4,1201c0-19,2-27,5-17c2,9,2,25,0,35
	C5829.4,1228,5827.4,1220,5827.4,1201z M5917.4,1201c0-19,2-27,5-17c2,9,2,25,0,35C5919.4,1228,5917.4,1220,5917.4,1201z
	 M6007.4,1201c0-19,2-27,5-17c2,9,2,25,0,35C6009.4,1228,6007.4,1220,6007.4,1201z M6097.4,1201c0-19,2-27,5-17c2,9,2,25,0,35
	C6099.4,1228,6097.4,1220,6097.4,1201z M6267.4,1201c0-19,2-27,5-17c2,9,2,25,0,35C6269.4,1228,6267.4,1220,6267.4,1201z
	 M5650.4,1196c0-14,3-25,8-25c4,0,7,11,7,25s-3,25-7,25C5653.4,1221,5650.4,1210,5650.4,1196z M5737.4,1196c0-16,2-22,5-12
	c2,9,2,23,0,30C5739.4,1220,5737.4,1213,5737.4,1196z M6175.4,1196c0-14,4-25,8-25s8,11,8,25s-4,25-8,25S6175.4,1210,6175.4,1196z
	 M5477.4,1111c0-19,2-27,5-17c2,9,2,25,0,35C5479.4,1138,5477.4,1130,5477.4,1111z M5567.4,1111c0-19,2-27,5-17c2,9,2,25,0,35
	C5569.4,1138,5567.4,1130,5567.4,1111z M5657.4,1111c0-19,2-27,5-17c2,9,2,25,0,35C5659.4,1138,5657.4,1130,5657.4,1111z
	 M5737.4,1111c0-19,2-27,5-17c2,9,2,25,0,35C5739.4,1138,5737.4,1130,5737.4,1111z M5827.4,1111c0-19,2-27,5-17c2,9,2,25,0,35
	C5829.4,1138,5827.4,1130,5827.4,1111z M5917.4,1111c0-19,2-27,5-17c2,9,2,25,0,35C5919.4,1138,5917.4,1130,5917.4,1111z
	 M6007.4,1111c0-19,2-27,5-17c2,9,2,25,0,35C6009.4,1138,6007.4,1130,6007.4,1111z M6097.4,1111c0-19,2-27,5-17c2,9,2,25,0,35
	C6099.4,1138,6097.4,1130,6097.4,1111z M6267.4,1111c0-19,2-27,5-17c2,9,2,25,0,35C6269.4,1138,6267.4,1130,6267.4,1111z
	 M6175.4,1106c0-14,4-25,9-25s8,11,7,25C6190.4,1139,6175.4,1139,6175.4,1106z M5477.4,1021c0-19,2-27,5-17c2,9,2,25,0,35
	C5479.4,1048,5477.4,1040,5477.4,1021z M5567.4,1021c0-19,2-27,5-17c2,9,2,25,0,35C5569.4,1048,5567.4,1040,5567.4,1021z
	 M5657.4,1021c0-19,2-27,5-17c2,9,2,25,0,35C5659.4,1048,5657.4,1040,5657.4,1021z M5737.4,1021c0-19,2-27,5-17c2,9,2,25,0,35
	C5739.4,1048,5737.4,1040,5737.4,1021z M5827.4,1021c0-19,2-27,5-17c2,9,2,25,0,35C5829.4,1048,5827.4,1040,5827.4,1021z
	 M5917.4,1021c0-19,2-27,5-17c2,9,2,25,0,35C5919.4,1048,5917.4,1040,5917.4,1021z M6007.4,1021c0-19,2-27,5-17c2,9,2,25,0,35
	C6009.4,1048,6007.4,1040,6007.4,1021z M6097.4,1021c0-19,2-27,5-17c2,9,2,25,0,35C6099.4,1048,6097.4,1040,6097.4,1021z
	 M6175.4,1019c0-17,3-28,8-24c10,10,10,56,0,56C6179.4,1051,6175.4,1037,6175.4,1019z M6267.4,1021c0-19,2-27,5-17c2,9,2,25,0,35
	C6269.4,1048,6267.4,1040,6267.4,1021z M8758.4,1981c0-25,2-35,4-22c2,12,2,32,0,45C8760.4,2016,8758.4,2006,8758.4,1981z
	 M8848.4,1981c0-25,2-35,4-22c2,12,2,32,0,45C8850.4,2016,8848.4,2006,8848.4,1981z M8938.4,1981c0-25,2-35,4-22c2,12,2,32,0,45
	C8940.4,2016,8938.4,2006,8938.4,1981z M8758.4,1861c0-25,2-35,4-22c2,12,2,32,0,45C8760.4,1896,8758.4,1886,8758.4,1861z
	 M8848.4,1861c0-25,2-35,4-22c2,12,2,32,0,45C8850.4,1896,8848.4,1886,8848.4,1861z M8938.4,1861c0-25,2-35,4-22c2,12,2,32,0,45
	C8940.4,1896,8938.4,1886,8938.4,1861z M8758.4,1741c0-25,2-35,4-22c2,12,2,32,0,45C8760.4,1776,8758.4,1766,8758.4,1741z
	 M8848.4,1741c0-25,2-35,4-22c2,12,2,32,0,45C8850.4,1776,8848.4,1766,8848.4,1741z M8938.4,1736c0-22,2-30,4-17c2,12,2,30,0,40
	C8939.4,1768,8937.4,1758,8938.4,1736z M8758.4,1611c0-25,2-35,4-22c2,12,2,32,0,45C8760.4,1646,8758.4,1636,8758.4,1611z
	 M8848.4,1611c0-25,2-35,4-22c2,12,2,32,0,45C8850.4,1646,8848.4,1636,8848.4,1611z M8938.4,1616c0-22,2-30,4-17c2,12,2,30,0,40
	C8939.4,1648,8937.4,1638,8938.4,1616z M8758.4,1491c0-25,2-35,4-22c2,12,2,32,0,45C8760.4,1526,8758.4,1516,8758.4,1491z
	 M8848.4,1491c0-25,2-35,4-22c2,12,2,32,0,45C8850.4,1526,8848.4,1516,8848.4,1491z M8938.4,1491c0-25,2-35,4-22c2,12,2,32,0,45
	C8940.4,1526,8938.4,1516,8938.4,1491z M8758.4,1371c0-25,2-35,4-22c2,12,2,32,0,45C8760.4,1406,8758.4,1396,8758.4,1371z
	 M8848.4,1371c0-25,2-35,4-22c2,12,2,32,0,45C8850.4,1406,8848.4,1396,8848.4,1371z M8938.4,1371c0-25,2-35,4-22c2,12,2,32,0,45
	C8940.4,1406,8938.4,1396,8938.4,1371z M8758.4,1251c0-25,2-35,4-22c2,12,2,32,0,45C8760.4,1286,8758.4,1276,8758.4,1251z
	 M8848.4,1251c0-25,2-35,4-22c2,12,2,32,0,45C8850.4,1286,8848.4,1276,8848.4,1251z M8938.4,1246c0-22,2-30,4-17c2,12,2,30,0,40
	C8939.4,1278,8937.4,1268,8938.4,1246z M8758.4,1121c0-25,2-35,4-22c2,12,2,32,0,45C8760.4,1156,8758.4,1146,8758.4,1121z
	 M8848.4,1121c0-25,2-35,4-22c2,12,2,32,0,45C8850.4,1156,8848.4,1146,8848.4,1121z M8938.4,1126c0-22,2-30,4-17c2,12,2,30,0,40
	C8939.4,1158,8937.4,1148,8938.4,1126z M5032.4,1444c-11-10-8-61,3-68c6-4,10,10,10,34C5045.4,1452,5043.4,1456,5032.4,1444z
	 M5112.4,1444c-11-10-8-61,3-68c6-4,10,10,10,34C5125.4,1452,5123.4,1456,5112.4,1444z M5192.4,1444c-11-10-8-61,3-68
	c6-4,10,10,10,34C5205.4,1452,5203.4,1456,5192.4,1444z M4865.4,1412c0-17,5-33,10-36c6-4,10,8,10,29c0,20-4,36-10,36
	C4870.4,1441,4865.4,1428,4865.4,1412z M4945.4,1412c0-17,5-33,10-36c6-4,10,8,10,29c0,20-4,36-10,36
	C4950.4,1441,4945.4,1428,4945.4,1412z M4872.4,1354c-11-10-8-61,3-68c6-4,10,10,10,34C4885.4,1362,4883.4,1366,4872.4,1354z
	 M4952.4,1354c-11-10-8-61,3-68c6-4,10,10,10,34C4965.4,1362,4963.4,1366,4952.4,1354z M5032.4,1354c-11-10-8-61,3-68
	c6-4,10,10,10,34C5045.4,1362,5043.4,1366,5032.4,1354z M5112.4,1354c-11-10-8-61,3-68c6-4,10,10,10,34
	C5125.4,1362,5123.4,1366,5112.4,1354z M5192.4,1354c-11-10-8-61,3-68c6-4,10,10,10,34C5205.4,1362,5203.4,1366,5192.4,1354z"/>
</svg>
